<?xml version="1.0" encoding="utf-8"?>
<!-- Generator: Adobe Illustrator 16.0.4, SVG Export Plug-In . SVG Version: 6.00 Build 0)  -->
<!DOCTYPE svg PUBLIC "-//W3C//DTD SVG 1.1//EN" "http://www.w3.org/Graphics/SVG/1.1/DTD/svg11.dtd">
<svg version="1.1" id="Layer_1" xmlns="http://www.w3.org/2000/svg" xmlns:xlink="http://www.w3.org/1999/xlink" x="0px" y="0px"
	 width="109.138px" height="107.698px" viewBox="0 0 109.138 107.698" enable-background="new 0 0 109.138 107.698"
	 xml:space="preserve">
<g>
	<path fill="#383938" d="M0,99.029c0-1.07,0.192-2.136,0.578-3.199c0.383-1.062,0.944-2.011,1.68-2.848s1.636-1.514,2.698-2.032
		c1.061-0.519,2.271-0.777,3.625-0.777c1.589,0,2.969,0.36,4.14,1.078c1.17,0.72,2.04,1.657,2.609,2.811l-3.161,2.208
		c-0.185-0.468-0.419-0.857-0.703-1.167c-0.285-0.309-0.594-0.56-0.929-0.752c-0.335-0.192-0.682-0.326-1.042-0.402
		s-0.699-0.113-1.016-0.113c-0.737,0-1.372,0.159-1.907,0.477c-0.536,0.318-0.979,0.728-1.331,1.23
		c-0.351,0.5-0.614,1.071-0.79,1.706C4.278,97.884,4.19,98.528,4.19,99.18c0,0.703,0.104,1.38,0.313,2.033
		c0.208,0.652,0.502,1.229,0.877,1.731c0.377,0.502,0.833,0.899,1.368,1.192c0.535,0.292,1.129,0.439,1.782,0.439
		c0.334,0,0.682-0.045,1.042-0.138c0.359-0.091,0.706-0.233,1.041-0.426c0.334-0.192,0.636-0.443,0.904-0.753
		c0.267-0.309,0.485-0.69,0.652-1.141l3.386,1.982c-0.268,0.652-0.657,1.238-1.166,1.756c-0.511,0.519-1.092,0.953-1.745,1.305
		c-0.652,0.351-1.342,0.619-2.07,0.803c-0.727,0.184-1.442,0.275-2.145,0.275c-1.238,0-2.371-0.263-3.398-0.79
		c-1.029-0.527-1.917-1.225-2.66-2.095c-0.744-0.869-1.325-1.856-1.743-2.96C0.208,101.288,0,100.167,0,99.029z"/>
	<path fill="#383938" d="M33.746,90.273v17.813h-4.115v-7.3H22.53v7.3h-4.115V90.273h4.115v6.899h7.101v-6.899H33.746z"/>
	<path fill="#383938" d="M36.154,108.086l6.85-17.813h3.336l6.825,17.813h-4.366l-1.38-3.989h-5.544l-1.355,3.989H36.154z
		 M44.66,94.639l-2.133,6.624h4.189L44.66,94.639z"/>
	<path fill="#383938" d="M66.111,95.492c-0.066-0.066-0.252-0.191-0.553-0.376c-0.301-0.183-0.677-0.375-1.129-0.577
		c-0.451-0.201-0.945-0.376-1.48-0.527c-0.535-0.151-1.07-0.226-1.605-0.226c-0.702,0-1.242,0.125-1.618,0.376
		c-0.376,0.25-0.563,0.619-0.563,1.104c0,0.302,0.082,0.552,0.25,0.753c0.167,0.201,0.404,0.38,0.715,0.54
		c0.31,0.159,0.694,0.305,1.154,0.438c0.46,0.135,0.99,0.285,1.593,0.451c0.853,0.235,1.623,0.49,2.308,0.766
		c0.686,0.275,1.271,0.619,1.758,1.029c0.485,0.41,0.856,0.907,1.115,1.493c0.26,0.585,0.39,1.288,0.39,2.107
		c0,1.003-0.188,1.853-0.564,2.546c-0.377,0.694-0.875,1.255-1.493,1.681c-0.619,0.427-1.334,0.736-2.146,0.929
		c-0.812,0.192-1.644,0.289-2.496,0.289c-0.652,0-1.317-0.051-1.995-0.151c-0.677-0.1-1.342-0.246-1.994-0.438
		s-1.287-0.423-1.906-0.69c-0.619-0.268-1.188-0.578-1.707-0.929l1.807-3.588c0.084,0.084,0.309,0.243,0.678,0.478
		c0.367,0.234,0.819,0.468,1.354,0.703c0.536,0.234,1.138,0.443,1.808,0.627c0.668,0.184,1.346,0.276,2.031,0.276
		c1.455,0,2.184-0.443,2.184-1.33c0-0.334-0.109-0.61-0.327-0.828c-0.217-0.217-0.519-0.414-0.903-0.589
		c-0.385-0.177-0.836-0.339-1.354-0.49c-0.519-0.15-1.087-0.317-1.705-0.502c-0.82-0.25-1.53-0.522-2.134-0.815
		c-0.602-0.292-1.104-0.631-1.505-1.016c-0.401-0.385-0.698-0.828-0.891-1.33c-0.192-0.502-0.288-1.087-0.288-1.757
		c0-0.937,0.174-1.764,0.526-2.483c0.351-0.719,0.828-1.326,1.43-1.819c0.603-0.494,1.302-0.866,2.096-1.116
		c0.794-0.251,1.634-0.376,2.521-0.376c0.636,0,1.254,0.059,1.856,0.175c0.603,0.117,1.175,0.268,1.718,0.452
		c0.544,0.184,1.058,0.393,1.543,0.627c0.485,0.234,0.92,0.469,1.306,0.703L66.111,95.492z"/>
	<path fill="#383938" d="M82.318,95.492c-0.067-0.066-0.251-0.191-0.552-0.376c-0.301-0.183-0.678-0.375-1.129-0.577
		c-0.451-0.201-0.945-0.376-1.48-0.527c-0.536-0.151-1.07-0.226-1.605-0.226c-0.703,0-1.242,0.125-1.618,0.376
		c-0.377,0.25-0.565,0.619-0.565,1.104c0,0.302,0.084,0.552,0.252,0.753c0.166,0.201,0.404,0.38,0.715,0.54
		c0.309,0.159,0.693,0.305,1.153,0.438c0.46,0.135,0.991,0.285,1.595,0.451c0.852,0.235,1.621,0.49,2.308,0.766
		c0.685,0.275,1.271,0.619,1.756,1.029s0.857,0.907,1.117,1.493c0.258,0.585,0.388,1.288,0.388,2.107
		c0,1.003-0.188,1.853-0.563,2.546c-0.376,0.694-0.874,1.255-1.493,1.681c-0.619,0.427-1.334,0.736-2.146,0.929
		c-0.812,0.192-1.644,0.289-2.496,0.289c-0.652,0-1.317-0.051-1.995-0.151c-0.678-0.1-1.342-0.246-1.994-0.438
		s-1.288-0.423-1.906-0.69c-0.62-0.268-1.189-0.578-1.707-0.929l1.807-3.588c0.083,0.084,0.311,0.243,0.678,0.478
		s0.818,0.468,1.355,0.703c0.534,0.234,1.137,0.443,1.805,0.627c0.67,0.184,1.348,0.276,2.033,0.276c1.455,0,2.182-0.443,2.182-1.33
		c0-0.334-0.108-0.61-0.324-0.828c-0.219-0.217-0.52-0.414-0.904-0.589c-0.385-0.177-0.836-0.339-1.354-0.49
		c-0.519-0.15-1.087-0.317-1.706-0.502c-0.82-0.25-1.531-0.522-2.133-0.815c-0.602-0.292-1.104-0.631-1.506-1.016
		c-0.4-0.385-0.698-0.828-0.891-1.33c-0.191-0.502-0.289-1.087-0.289-1.757c0-0.937,0.178-1.764,0.527-2.483
		c0.353-0.719,0.828-1.326,1.431-1.819c0.603-0.494,1.3-0.866,2.095-1.116c0.795-0.251,1.635-0.376,2.521-0.376
		c0.637,0,1.255,0.059,1.856,0.175c0.603,0.117,1.175,0.268,1.72,0.452c0.543,0.184,1.057,0.393,1.542,0.627
		c0.485,0.234,0.92,0.469,1.306,0.703L82.318,95.492z"/>
	<path fill="#383938" d="M87.813,108.086V90.273h4.114v17.813H87.813z"/>
	<path fill="#383938" d="M106.806,95.492c-0.066-0.066-0.252-0.191-0.552-0.376c-0.302-0.183-0.678-0.375-1.13-0.577
		c-0.451-0.201-0.945-0.376-1.48-0.527c-0.535-0.151-1.07-0.226-1.605-0.226c-0.702,0-1.242,0.125-1.618,0.376
		c-0.376,0.25-0.564,0.619-0.564,1.104c0,0.302,0.083,0.552,0.251,0.753c0.168,0.201,0.405,0.38,0.715,0.54
		c0.31,0.159,0.695,0.305,1.154,0.438c0.46,0.135,0.991,0.285,1.593,0.451c0.853,0.235,1.623,0.49,2.308,0.766
		c0.687,0.275,1.271,0.619,1.758,1.029c0.485,0.41,0.856,0.907,1.115,1.493c0.26,0.585,0.389,1.288,0.389,2.107
		c0,1.003-0.187,1.853-0.563,2.546c-0.376,0.694-0.874,1.255-1.493,1.681c-0.619,0.427-1.334,0.736-2.145,0.929
		c-0.812,0.192-1.644,0.289-2.498,0.289c-0.65,0-1.316-0.051-1.993-0.151c-0.677-0.1-1.343-0.246-1.995-0.438
		s-1.288-0.423-1.906-0.69c-0.619-0.268-1.188-0.578-1.707-0.929l1.807-3.588c0.084,0.084,0.31,0.243,0.678,0.478
		s0.819,0.468,1.355,0.703c0.535,0.234,1.137,0.443,1.807,0.627c0.668,0.184,1.346,0.276,2.032,0.276
		c1.454,0,2.183-0.443,2.183-1.33c0-0.334-0.109-0.61-0.327-0.828c-0.217-0.217-0.518-0.414-0.902-0.589
		c-0.386-0.177-0.837-0.339-1.354-0.49c-0.52-0.15-1.088-0.317-1.707-0.502c-0.819-0.25-1.529-0.522-2.132-0.815
		c-0.603-0.292-1.104-0.631-1.505-1.016c-0.402-0.385-0.7-0.828-0.892-1.33c-0.192-0.502-0.288-1.087-0.288-1.757
		c0-0.937,0.175-1.764,0.527-2.483c0.35-0.719,0.827-1.326,1.43-1.819c0.602-0.494,1.301-0.866,2.095-1.116
		c0.794-0.251,1.634-0.376,2.521-0.376c0.636,0,1.255,0.059,1.857,0.175c0.604,0.117,1.176,0.268,1.719,0.452
		s1.058,0.393,1.543,0.627c0.484,0.234,0.92,0.469,1.305,0.703L106.806,95.492z"/>
</g>
<path fill="#3ABFC9" d="M66.381,46.607l-1.551,1.554c-2.621,2.624-6.093,4.069-9.777,4.069c-7.639,0-13.853-6.213-13.853-13.85
	s6.214-13.849,13.853-13.849c3.416,0,6.711,1.287,9.28,3.626l1.549,1.41l17.338-17.34l-1.616-1.552C74.427,3.791,64.998,0,55.053,0
	C33.888,0,16.667,17.218,16.667,38.381c0,21.163,17.221,38.382,38.386,38.382c10.23,0,19.86-4.001,27.117-11.264l1.552-1.551
	L66.381,46.607z M65.387,52.727l3.91,4.364C65.373,60.376,62,62.314,55,62.678v-6.148C60,56.197,62.645,54.888,65.387,52.727z
	 M35.863,53.586C33.046,49.991,31.217,45,30.786,41h6.162c0.376,2,1.54,5.886,3.289,8.319L35.863,53.586z M36.948,36h-6.162
	c0.456-5,2.47-9.607,5.562-13.308L40.703,27C38.697,29.558,37.357,33,36.948,36z M39.32,19.679c3.559-2.97,6.68-4.944,12.68-5.499
	v6.172c-4,0.487-5.985,1.79-8.394,3.682L39.32,19.679z M52,9.763c-6,0.584-11.42,3.053-15.79,6.806l-3.774-3.707
	C37.769,8.171,43,5.126,52,4.515V9.763z M33.238,19.582C29.362,24.093,26.862,29,26.386,36h-5.248
	c0.495-9,3.578-14.699,8.392-20.171L33.238,19.582z M26.386,41c0.456,5,2.761,11.295,6.353,15.709l-3.714,3.819
	C24.5,55.145,21.616,48,21.138,41H26.386z M35.549,59.69C40.044,63.763,46,66.433,52,67.015v5.245
	c-9-0.603-14.806-3.855-20.257-8.871L35.549,59.69z M52,56.43v6.173c-6-0.558-9.651-2.74-13.34-6.024l4.234-4.341
	C45.452,54.428,48,55.924,52,56.43z M64.826,23.585C62.168,21.666,60,20.508,55,20.217v-6.142c7,0.319,9.961,2.09,13.814,5.109
	L64.826,23.585z M72.348,16.064C67.645,12.238,62,10.009,55,9.674V4.431c9,0.347,14.947,3.112,20.652,7.914L72.348,16.064z
	 M55,72.321v-5.24c9-0.377,13.096-2.775,17.861-6.878l3.242,3.697C70.334,68.991,64,71.93,55,72.321z"/>
</svg>
