<?xml version="1.0" encoding="UTF-8" standalone="no"?>
<svg
   xmlns:dc="http://purl.org/dc/elements/1.1/"
   xmlns:cc="http://creativecommons.org/ns#"
   xmlns:rdf="http://www.w3.org/1999/02/22-rdf-syntax-ns#"
   xmlns:svg="http://www.w3.org/2000/svg"
   xmlns="http://www.w3.org/2000/svg"
   viewBox="0 0 437.97501 475.10001"
   height="475.10001"
   width="437.97501"
   xml:space="preserve"
   version="1.1"
   id="svg2"><metadata
     id="metadata8"><rdf:RDF><cc:Work
         rdf:about=""><dc:format>image/svg+xml</dc:format><dc:type
           rdf:resource="http://purl.org/dc/dcmitype/StillImage" /></cc:Work></rdf:RDF></metadata><defs
     id="defs6"><clipPath
       id="clipPath18"
       clipPathUnits="userSpaceOnUse"><path
         id="path20"
         d="M 0,3800.78 0,0 l 3503.84,0 0,3800.78 -3503.84,0 z" /></clipPath></defs><g
     transform="matrix(1.25,0,0,-1.25,0,475.1)"
     id="g10"><g
       transform="scale(0.1,0.1)"
       id="g12"><g
         id="g14"><g
           clip-path="url(#clipPath18)"
           id="g16"><path
             id="path22"
             style="fill:#2f2d2e;fill-opacity:1;fill-rule:nonzero;stroke:none"
             d="m 1591.4,3777.28 -89.26,0 c -4.94,0 -9.85,-5.18 -10.98,-10.01 l -31.69,-147.17 -31.65,-149.81 c -1.09,-4.85 -5.99,-12 -10.96,-12 l -63.19,0 c -62.44,0 -55.21,46.14 -42.42,105.39 l 25.59,132.03 14.38,71.56 c 1.03,4.83 -2.19,10.01 -7.16,10.01 l -91.68,0 c -4.94,0 -9.8,-5.18 -10.84,-10.01 l -41.26,-196.86 c -22.67,-103.64 -16.64,-199.73 106.73,-202.78 1.95,-0.03 197.41,0 197.41,0 4.94,0 9.88,1.27 10.87,6.08 l 41.47,197.54 41.79,196.74 c 1.07,4.85 -2.18,9.29 -7.15,9.29" /><path
             id="path24"
             style="fill:#2f2d2e;fill-opacity:1;fill-rule:nonzero;stroke:none"
             d="m 1054.01,3584.67 -18.13,-64.1 -17.5,-56.48 c -1.12,-3.91 -6.83,-6.53 -10.87,-6.53 l -85.084,0 c -64.567,0 -80.242,49.88 -64.567,124.32 15.696,76.17 47.961,123.18 111.465,128.01 86.806,6.56 105.676,-54.78 84.686,-125.22 m 55.45,-123.9 c 0,0 40.08,97.48 49.26,153.66 12.32,75.37 -25.32,184.55 -170.962,184.55 -144.813,0 -207.703,-104.27 -231.684,-217.62 -23.965,-114.19 7.473,-214.32 151.406,-213.46 l 219.81,0.76 c 4.05,0.04 8.23,3.28 9.28,7.19 l 18.5,70.56 c 1.03,3.95 -1.49,7.23 -5.6,7.27 l -17.63,0.06 -17.81,0.14 c -3.43,0.07 -5.43,2.25 -5,5.23 l 0.43,1.66" /><path
             id="path26"
             style="fill:#2f2d2e;fill-opacity:1;fill-rule:nonzero;stroke:none"
             d="m 1876.45,3381.82 c -1.3,-6.53 -7.8,-13.93 -14.43,-13.93 l -78.65,0 c -6.63,0 -10.9,7.4 -9.61,13.89 0,0 31.69,153.04 33.21,159.47 0,0 13.56,57.6 -29.1,57.6 l -36.06,0 c -6.7,0 -13.2,-5.4 -14.58,-11.87 l -43.86,-205.16 c -1.36,-6.5 -7.89,-13.93 -14.51,-13.93 l -76.04,0 c -6.56,0 -10.91,7.4 -9.51,13.89 l 62.51,296.26 c 1.39,6.5 7.89,14.35 14.51,14.35 0,0 130.73,0 160.2,0 129.1,0 90.05,-144.31 90.05,-144.31 -1.75,-6.3 -34.13,-166.26 -34.13,-166.26" /><path
             id="path28"
             style="fill:#2f2d2e;fill-opacity:1;fill-rule:nonzero;stroke:none"
             d="m 2062.65,3708.9 c -28.44,0 -49.25,8.88 -41.69,44.18 7.61,35.36 32.21,44.18 60.58,44.18 27.15,0 48.63,-8.82 41,-44.18 -7.52,-34.64 -32.15,-44.18 -59.89,-44.18 m -25.19,-327.12 c -1.36,-6.49 -7.96,-13.89 -14.58,-13.89 l -79.29,0 c -6.63,0 -10.81,7.4 -9.41,13.83 l 63.93,293.69 c 1.45,6.43 7.94,12.92 14.51,12.92 l 77.06,0 c 6.66,0 10.91,-7.45 9.58,-13.95 l -61.8,-292.6" /><path
             id="path30"
             style="fill:#2f2d2e;fill-opacity:1;fill-rule:nonzero;stroke:none"
             d="m 2154.25,3367.63 c -6.54,0.26 -10.66,7.86 -9.23,14.35 l 49.18,223.84 c 1.4,6.39 -2.81,11.73 -9.44,11.73 l -37.86,0 c -6.59,0 -10.77,5.24 -9.2,11.7 l 10.66,46.1 c 1.56,6.44 8.26,13.19 14.85,13.19 l 41.47,0 c 6.53,0 13.12,3.71 14.55,10.28 l 12.43,53.3 c 1.36,6.46 7.92,7.89 14.58,7.89 l 62.08,0 c 6.6,0 10.87,-2.19 9.48,-8.65 l -12.07,-54.13 c -1.35,-6.5 2.92,-8.69 9.48,-8.69 l 52.91,0 c 6.56,0 10.74,-6.75 9.24,-13.19 l -10.84,-46.4 c -1.45,-6.46 -8.15,-11.96 -14.74,-11.96 l -48.9,0 c -6.59,0 -13.15,-5.77 -14.65,-12.24 l -49.18,-225.58 c -1.33,-6.47 -7.89,-11.74 -14.45,-11.53 l -70.35,-0.01" /><path
             id="path32"
             style="fill:#992094;fill-opacity:1;fill-rule:nonzero;stroke:none"
             d="m 603.008,3264.95 c 0,-32.62 -32.895,-67.15 -65.625,-67.15 l -475.1369,0 C 29.5977,3197.8 0,3232.33 0,3264.95 l 0,475.23 c 0,32.62 29.5977,60.6 62.2461,60.6 l 475.1369,0 c 32.73,0 65.625,-27.98 65.625,-60.6 l 0,-475.23" /><path
             id="path34"
             style="fill:#ffffff;fill-opacity:1;fill-rule:nonzero;stroke:none"
             d="m 531.168,3476.62 -15.445,-72.59 15.445,72.59" /><path
             id="path36"
             style="fill:#ffffff;fill-opacity:1;fill-rule:nonzero;stroke:none"
             d="m 491.508,3476.62 -11.711,-54.23 11.711,54.23" /><path
             id="path38"
             style="fill:#ffffff;fill-opacity:1;fill-rule:nonzero;stroke:none"
             d="m 528.5,3481.88 -32.949,0 c -1.856,0 -3.711,-2.48 -4.043,-4.26 l -11.711,-54.7 -11.672,-56.81 c -0.414,-1.86 -2.27,-5.97 -4.094,-5.97 l -23.332,0 c -23.101,0 -20.449,18.36 -15.761,40.24 l 0.214,1.92 0.485,3.38 0.093,0.79 1.094,5.78 1.114,6.1 c 0.347,1.79 0.863,4.51 1.171,6.19 l 5.34,26.03 5.356,27.05 c 0.383,1.78 -0.828,4.26 -2.653,4.26 l -33.89,0 c -1.84,0 -3.649,-2.48 -3.992,-4.26 l -5.407,-35.07 -7.957,-36.87 c -8.418,-38.31 -8.035,-74.58 37.508,-74.58 l 72.871,0 c 1.856,0 3.66,0 4.008,1.86 l 15.43,71.86 15.445,73.19 c 0.414,1.72 -0.797,3.87 -2.668,3.87" /><path
             id="path40"
             style="fill:#ffffff;fill-opacity:1;fill-rule:nonzero;stroke:none"
             d="m 289.141,3507.34 -13.387,-53.39 -13.012,-44.42 c -0.828,-3.28 -5.121,-2.98 -8.203,-2.98 l -63.144,0 c -47.79,0 -59.461,39 -47.79,101.03 11.684,63.37 35.579,101.22 82.696,105.26 64.453,5.41 78.402,-46.86 62.84,-105.5 m 41.086,-103.11 c 0,0 29.761,81.04 36.492,127.94 9.164,62.64 -18.727,153.52 -126.781,153.52 -107.387,0 -154.0903,-86.76 -171.8911,-181.1 -17.7813,-95.03 5.539,-178.39 112.3281,-177.73 l 84.32,0.37 78.805,0.3 c 2.949,0 6.078,2.78 6.848,6.03 l 13.707,58.67 c 0.773,3.34 -1.067,6.03 -4.098,6.03 l -13.141,0.13 -13.16,0.07 c -2.636,0.06 -4.062,1.86 -3.793,4.41 l 0.364,1.36" /><path
             id="path42"
             style="fill:#992094;fill-opacity:1;fill-rule:nonzero;stroke:none"
             d="m 1295.6,3313.61 24.49,3.37 -5.41,-25.21 -24.34,-3.36 5.26,25.2 z m -40.84,-134.6 c 12.08,9.08 14.64,10.42 16.27,18.49 l 16.91,79.98 24.51,3.36 -18.51,-87.21 c -2.23,-10.75 -5.64,-16.64 -28.16,-30.93 l -11.02,16.31" /><path
             id="path44"
             style="fill:#992094;fill-opacity:1;fill-rule:nonzero;stroke:none"
             d="m 1313.86,3201.19 5.14,17.48 c 6.15,-2.19 13.14,-4.2 22.04,-4.2 7.92,0 8.5,2.35 9.3,6.21 0.8,3.7 -1.47,5.71 -10.55,10.59 -16.83,9.07 -17.3,15.12 -14.68,27.39 3.81,17.65 9.19,22.35 31.88,22.35 7.74,0 17.6,-1.67 24.25,-3.86 l -4.48,-17.81 c -6,1.68 -14.88,3.02 -20.59,3.02 -7.06,0 -8.09,-0.84 -9.09,-5.21 -0.81,-3.86 0.01,-4.7 7.76,-8.91 18.48,-10.08 21.21,-13.61 18.41,-26.55 -4,-18.48 -9.65,-25.88 -34.2,-25.88 -7.56,0 -18.08,2.19 -25.19,5.38" /><path
             id="path46"
             style="fill:#992094;fill-opacity:1;fill-rule:nonzero;stroke:none"
             d="m 1445.1,3223.88 -0.42,-2.52 c -0.06,-1.68 0.75,-2.52 3.1,-2.52 4.38,0 15.31,4.7 21.46,7.73 l 10.68,50.91 24.5,3.36 -17.54,-83.34 -20.17,0 0.09,7.56 c -12.98,-6.05 -23.19,-9.25 -32.61,-9.25 -10.76,0 -14.74,6.39 -14.38,16.64 0.12,3.36 0.55,6.05 1.18,9.41 l 11.69,55.62 24.32,3.36 -11.9,-56.96" /><path
             id="path48"
             style="fill:#992094;fill-opacity:1;fill-rule:nonzero;stroke:none"
             d="m 1566.15,3253.12 c 0.21,1 0.4,1.85 0.42,2.52 0.06,1.68 -0.75,2.35 -3.1,2.35 -4.38,0 -14.95,-4.37 -21.47,-7.73 l -11.09,-52.76 -23.71,0 16.76,79.82 20.96,3.52 -0.49,-9.07 c 13,6.05 23.2,9.24 32.61,9.24 10.94,0 14.76,-6.22 14.4,-16.63 -0.11,-2.86 -0.36,-5.21 -1.18,-9.41 l -12.1,-57.47 -23.71,0 11.7,55.62" /><path
             id="path50"
             style="fill:#992094;fill-opacity:1;fill-rule:nonzero;stroke:none"
             d="m 1622.22,3313.61 24.5,3.37 -5.42,-25.21 -24.34,-3.36 5.26,25.2 z m -7.66,-36.13 24.49,3.36 -17.7,-83.34 -23.71,0 16.92,79.98" /><path
             id="path52"
             style="fill:#992094;fill-opacity:1;fill-rule:nonzero;stroke:none"
             d="m 1682.89,3260.34 -8.65,-40.83 -0.42,-2.19 c -0.04,-1.18 0.61,-1.68 2.29,-1.68 4.05,0 8.64,1.68 12.9,3.36 l 4.13,-16.47 c -6.85,-3.69 -16.7,-6.72 -26.29,-6.72 -11.94,0 -18.13,5.71 -17.79,15.46 0.04,1.18 0.26,2.36 0.46,3.53 l 9.66,45.54 -12.1,0 4.02,19 12.11,0 4.05,19.65 24.5,3.37 -4.85,-23.02 19.52,0 -5.38,-19 -18.16,0" /><path
             id="path54"
             style="fill:#992094;fill-opacity:1;fill-rule:nonzero;stroke:none"
             d="m 1778.37,3260.34 -8.65,-40.83 -0.42,-2.19 c -0.04,-1.18 0.61,-1.68 2.29,-1.68 4.04,0 8.64,1.68 12.9,3.36 l 4.13,-16.47 c -6.85,-3.69 -16.71,-6.72 -26.3,-6.72 -11.93,0 -18.12,5.71 -17.78,15.46 0.04,1.18 0.25,2.36 0.46,3.53 l 9.66,45.54 -12.1,0 4.02,19 12.11,0 4.04,19.65 24.51,3.37 -4.84,-23.02 19.5,0 -5.37,-19 -18.16,0" /><path
             id="path56"
             style="fill:#992094;fill-opacity:1;fill-rule:nonzero;stroke:none"
             d="m 1849.74,3257.99 c 0.09,2.86 -2.36,4.71 -6.73,4.71 -8.58,0 -11.28,-4.88 -12.69,-11.6 l -1.2,-5.71 c 4.06,1 5.92,1.34 10.86,2.85 6.45,1.85 9.58,4.88 9.76,9.75 z m -43.17,-7.9 c 4.03,18.82 12.85,30.92 38.75,30.92 15.47,0 27,-6.72 26.53,-20.5 -0.56,-15.96 -9.06,-23.36 -29.45,-29.4 -10.02,-3.03 -10.19,-3.03 -17.32,-4.88 l -1.2,-5.71 c -0.62,-3.03 -0.37,-5.72 3.99,-5.72 8.59,0 21.17,4.2 32.44,9.08 l 3.96,-16.81 c -10.15,-6.22 -25.96,-11.26 -40.42,-11.26 -16.98,0 -23.96,7.4 -23.47,21.34 0.1,3.03 0.57,6.39 1.36,9.92 l 4.83,23.02" /><path
             id="path58"
             style="fill:#992094;fill-opacity:1;fill-rule:nonzero;stroke:none"
             d="m 1873.8,3201.19 5.15,17.48 c 6.14,-2.19 13.13,-4.2 22.04,-4.2 7.91,0 8.48,2.35 9.29,6.21 0.81,3.7 -1.47,5.71 -10.55,10.59 -16.83,9.07 -17.3,15.12 -14.68,27.39 3.81,17.65 9.19,22.35 31.88,22.35 7.74,0 17.6,-1.67 24.25,-3.86 l -4.48,-17.81 c -6,1.68 -14.87,3.02 -20.59,3.02 -7.06,0 -8.1,-0.84 -9.09,-5.21 -0.81,-3.86 0.01,-4.7 7.77,-8.91 18.47,-10.08 21.21,-13.61 18.4,-26.55 -4,-18.48 -9.65,-25.88 -34.2,-25.88 -7.56,0 -18.08,2.19 -25.19,5.38" /><path
             id="path60"
             style="fill:#992094;fill-opacity:1;fill-rule:nonzero;stroke:none"
             d="m 1984.12,3260.34 -8.65,-40.83 -0.42,-2.19 c -0.04,-1.18 0.61,-1.68 2.29,-1.68 4.05,0 8.64,1.68 12.9,3.36 l 4.14,-16.47 c -6.86,-3.69 -16.71,-6.72 -26.3,-6.72 -11.94,0 -18.13,5.71 -17.79,15.46 0.04,1.18 0.26,2.36 0.46,3.53 l 9.66,45.54 -12.1,0 4.02,19 12.11,0 4.05,19.65 24.5,3.37 -4.85,-23.02 19.52,0 -5.37,-19 -18.17,0" /><path
             id="path62"
             style="fill:#992094;fill-opacity:1;fill-rule:nonzero;stroke:none"
             d="m 2029.19,3313.61 24.5,3.37 -5.42,-25.21 -24.33,-3.36 5.25,25.2 z m -7.66,-36.13 24.5,3.36 -17.71,-83.34 -23.71,0 16.92,79.98" /><path
             id="path64"
             style="fill:#992094;fill-opacity:1;fill-rule:nonzero;stroke:none"
             d="m 2107.6,3253.12 c 0.2,1 0.4,1.85 0.42,2.52 0.06,1.68 -0.75,2.35 -3.11,2.35 -4.37,0 -14.95,-4.37 -21.46,-7.73 l -11.1,-52.76 -23.71,0 16.76,79.82 20.97,3.52 -0.49,-9.07 c 13,6.05 23.19,9.24 32.61,9.24 10.93,0 14.75,-6.22 14.39,-16.63 -0.11,-2.86 -0.35,-5.21 -1.17,-9.41 l -12.1,-57.47 -23.71,0 11.7,55.62" /><path
             id="path66"
             style="fill:#992094;fill-opacity:1;fill-rule:nonzero;stroke:none"
             d="m 2166.12,3225.39 c -0.99,-4.37 0.12,-6.39 4.32,-6.39 5.21,0 13.74,3.37 18.72,6.39 l 7.45,35.29 c -2.83,0.34 -5.86,0.5 -9.23,0.5 -12.27,0 -14.83,-6.04 -16.63,-13.94 l -4.63,-21.85 z m 19.02,-19.16 c -7.04,-4.03 -15.23,-7.05 -24.13,-7.05 -17.83,0 -21.82,10.92 -17.98,29.23 l 4.01,18.66 c 4.42,20.67 10.1,33.94 45.08,33.94 8.57,0 21.3,-1.5 31.61,-4.87 l -19.32,-90.75 c -3.82,-18.31 -11.89,-22.69 -33.75,-22.69 -9.75,0 -26.28,3.03 -36.26,6.39 l 4.78,16.64 c 12.51,-3.02 22.7,-4.71 32.45,-4.71 7.07,0 8.85,2.69 10.05,8.24 l 3.46,16.97" /><path
             id="path68"
             style="fill:#2f2d2e;fill-opacity:1;fill-rule:nonzero;stroke:none"
             d="m 2404.85,721.781 -34.73,-160.691 34.73,160.691" /><path
             id="path70"
             style="fill:#2f2d2e;fill-opacity:1;fill-rule:nonzero;stroke:none"
             d="m 2421.4,757.281 -89.26,0 c -4.94,0 -9.85,-5.179 -10.98,-10.011 l -31.69,-147.168 -31.65,-149.813 c -1.09,-4.848 -5.99,-12.008 -10.96,-12.008 l -63.19,0 c -62.44,0 -55.21,46.149 -42.42,105.41 l 25.59,132.02 14.38,71.559 c 1.03,4.832 -2.19,10.011 -7.16,10.011 l -91.68,0 c -4.94,0 -9.8,-5.179 -10.84,-10.011 l -41.26,-196.86 c -22.67,-103.64 -16.64,-199.73 106.73,-202.781 1.95,-0.027 197.41,0 197.41,0 4.94,0 9.88,1.269 10.87,6.07 l 41.47,197.539 41.79,196.75 c 1.07,4.852 -2.18,9.293 -7.15,9.293" /><path
             id="path72"
             style="fill:#2f2d2e;fill-opacity:1;fill-rule:nonzero;stroke:none"
             d="m 1884.01,564.672 -18.12,-64.102 -17.5,-56.48 c -1.13,-3.918 -6.84,-6.531 -10.88,-6.531 l -85.08,0 c -64.57,0 -80.25,49.882 -64.57,124.32 15.69,76.18 47.96,123.18 111.47,128.012 86.8,6.558 105.66,-54.782 84.68,-125.219 m 55.45,-123.902 c 0,0 40.08,97.48 49.26,153.66 12.33,75.371 -25.32,184.55 -170.96,184.55 -144.82,0 -207.71,-104.261 -231.69,-217.621 -23.96,-114.187 7.47,-214.32 151.41,-213.461 l 219.81,0.762 c 4.05,0.039 8.23,3.281 9.28,7.192 l 18.5,70.57 c 1.03,3.937 -1.49,7.219 -5.6,7.258 l -17.63,0.058 -17.81,0.141 c -3.43,0.062 -5.43,2.25 -5,5.23 l 0.43,1.661" /><path
             id="path74"
             style="fill:#2f2d2e;fill-opacity:1;fill-rule:nonzero;stroke:none"
             d="m 2706.45,357.98 c -1.3,-6.539 -7.8,-13.929 -14.43,-13.929 l -78.65,0 c -6.63,0 -10.9,7.39 -9.61,13.89 l 21.02,101.59 c 1.31,6.5 3.61,17.641 4.97,24.098 l 1.98,10.109 c 1.4,6.461 3.72,17.242 5.24,23.66 0,0 13.56,57.614 -29.1,57.614 l -36.06,0 c -6.7,0 -13.2,-5.403 -14.58,-11.871 L 2513.37,357.98 c -1.36,-6.511 -7.89,-13.929 -14.51,-13.929 l -76.04,0 c -6.56,0 -10.91,7.39 -9.51,13.89 l 62.51,296.258 c 1.39,6.492 7.89,14.34 14.51,14.34 0,0 129.93,-3.609 159.4,-3.609 129.1,0 90.85,-140.692 90.85,-140.692 -1.75,-6.297 -4.21,-18.039 -5.57,-24.468 l -28.56,-141.79" /><path
             id="path76"
             style="fill:#2f2d2e;fill-opacity:1;fill-rule:nonzero;stroke:none"
             d="m 2892.65,705.078 c -28.44,0 -49.25,8.871 -41.69,44.184 7.61,35.359 32.21,44.179 60.58,44.179 27.15,0 48.63,-8.82 41,-44.179 -7.52,-34.641 -32.15,-44.184 -59.89,-44.184 m -25.19,-347.137 c -1.36,-6.5 -7.96,-13.89 -14.58,-13.89 l -79.29,0 c -6.63,0 -10.81,7.39 -9.41,13.828 l 23.6,104.832 c 1.49,6.437 3.81,17.5 5.2,24.008 l 16.68,76.851 c 1.42,6.469 3.04,14.289 3.57,17.309 0.57,2.949 2.19,10.769 3.59,17.23 l 12,57.512 c 1.45,6.43 7.95,12.918 14.51,12.918 l 77.06,0 c 6.66,0 10.91,-7.449 9.58,-13.949 l -62.51,-296.649" /><path
             id="path78"
             style="fill:#2f2d2e;fill-opacity:1;fill-rule:nonzero;stroke:none"
             d="m 2984.43,349.82 c -6.53,0.27 -10.84,5.668 -9.41,12.16 l 49.18,223.84 c 1.4,6.399 -2.81,11.731 -9.44,11.731 l -37.86,0 c -6.59,0 -10.77,5.238 -9.2,11.699 l 10.66,46.102 c 1.56,6.437 8.26,13.187 14.85,13.187 l 41.47,0 c 6.53,0 13.12,3.711 14.55,10.281 l 12.43,53.301 c 1.36,6.461 7.92,7.891 14.58,7.891 l 62.08,0 c 6.6,0 10.87,-2.192 9.48,-8.653 l -12.07,-54.121 c -1.35,-6.508 2.92,-8.699 9.48,-8.699 l 62.92,0 c 6.56,0 10.74,-6.75 9.24,-13.187 l -10.84,-46.403 c -1.45,-6.461 -8.15,-11.961 -14.74,-11.961 l -58.91,0 c -6.59,0 -13.15,-5.769 -14.65,-12.238 l -49.18,-225.578 c -1.33,-6.473 -7.89,-11.742 -14.45,-11.531 l -70.17,2.179" /><path
             id="path80"
             style="fill:#992094;fill-opacity:1;fill-rule:nonzero;stroke:none"
             d="m 1433.01,244.949 c 0,-32.617 -32.9,-67.148 -65.63,-67.148 l -475.134,0 c -32.644,0 -62.246,34.531 -62.246,67.148 l 0,475.231 c 0,32.621 29.602,60.601 62.246,60.601 l 475.134,0 c 32.73,0 65.63,-27.98 65.63,-60.601 l 0,-475.231" /><path
             id="path82"
             style="fill:#ffffff;fill-opacity:1;fill-rule:nonzero;stroke:none"
             d="m 1361.16,456.621 -15.44,-72.59 15.44,72.59" /><path
             id="path84"
             style="fill:#ffffff;fill-opacity:1;fill-rule:nonzero;stroke:none"
             d="m 1321.51,456.621 -11.72,-54.23 11.72,54.23" /><path
             id="path86"
             style="fill:#ffffff;fill-opacity:1;fill-rule:nonzero;stroke:none"
             d="m 1358.51,461.879 -32.95,0 c -1.86,0 -3.71,-2.481 -4.05,-4.258 l -11.72,-54.699 -11.66,-56.813 c -0.42,-1.859 -2.28,-5.961 -4.1,-5.961 l -23.34,0 c -23.09,0 -20.45,18.352 -15.76,40.231 l 0.22,1.922 0.48,3.379 0.1,0.789 1.1,5.769 1.11,6.114 c 0.35,1.789 0.86,4.507 1.17,6.187 l 5.33,26.031 5.36,27.051 c 0.39,1.777 -0.83,4.258 -2.64,4.258 l -33.9,0 c -1.84,0 -3.64,-2.481 -3.99,-4.258 l -5.41,-35.07 -7.95,-36.871 c -8.42,-38.309 -8.04,-74.578 37.5,-74.578 l 72.87,0 c 1.85,0 3.67,0 4.01,1.859 l 15.43,71.859 15.44,73.192 c 0.42,1.726 -0.79,3.867 -2.65,3.867" /><path
             id="path88"
             style="fill:#ffffff;fill-opacity:1;fill-rule:nonzero;stroke:none"
             d="m 1119.14,487.34 -13.39,-53.399 -13.01,-44.41 c -0.83,-3.281 -5.12,-2.98 -8.2,-2.98 l -63.14,0 c -47.795,0 -59.466,39.008 -47.795,101.027 11.684,63.371 35.575,101.223 82.695,105.262 64.45,5.41 78.4,-46.86 62.84,-105.5 m 41.08,-103.11 c 0,0 29.77,81.04 36.5,127.942 9.17,62.637 -18.73,153.519 -126.78,153.519 -107.389,0 -154.088,-86.769 -171.893,-181.101 -17.781,-95.031 5.539,-178.391 112.333,-177.731 l 84.32,0.379 78.8,0.293 c 2.95,0 6.08,2.778 6.85,6.028 l 13.7,58.671 c 0.78,3.34 -1.06,6.032 -4.09,6.032 l -13.14,0.129 -13.16,0.078 c -2.64,0.051 -4.07,1.851 -3.8,4.402 l 0.36,1.359" /><path
             id="path90"
             style="fill:#992094;fill-opacity:1;fill-rule:nonzero;stroke:none"
             d="m 2125.6,293.609 24.49,3.371 -5.41,-25.21 -24.34,-3.36 5.26,25.199 M 2084.76,159 c 12.08,9.082 14.64,10.43 16.27,18.5 l 16.91,79.98 24.51,3.36 -18.51,-87.211 c -2.23,-10.758 -5.64,-16.641 -28.16,-30.93 L 2084.76,159" /><path
             id="path92"
             style="fill:#992094;fill-opacity:1;fill-rule:nonzero;stroke:none"
             d="m 2143.86,181.191 5.14,17.481 c 6.15,-2.192 13.14,-4.203 22.04,-4.203 7.92,0 8.5,2.351 9.3,6.211 0.8,3.691 -1.47,5.718 -10.55,10.59 -16.83,9.082 -17.3,15.128 -14.68,27.39 3.81,17.649 9.19,22.352 31.88,22.352 7.74,0 17.6,-1.672 24.25,-3.864 l -4.48,-17.816 c -6,1.68 -14.88,3.027 -20.59,3.027 -7.06,0 -8.09,-0.839 -9.09,-5.211 -0.81,-3.867 0.01,-4.707 7.76,-8.91 18.48,-10.078 21.21,-13.609 18.41,-26.539 -4,-18.5 -9.65,-25.879 -34.2,-25.879 -7.56,0 -18.08,2.18 -25.19,5.371" /><path
             id="path94"
             style="fill:#992094;fill-opacity:1;fill-rule:nonzero;stroke:none"
             d="m 2275.1,203.891 -0.42,-2.532 c -0.06,-1.679 0.75,-2.519 3.1,-2.519 4.38,0 15.31,4.699 21.46,7.719 l 10.68,50.921 24.5,3.36 -17.54,-83.34 -20.17,0 0.09,7.559 c -12.98,-6.059 -23.19,-9.239 -32.61,-9.239 -10.76,0 -14.74,6.379 -14.38,16.629 0.12,3.371 0.55,6.051 1.18,9.403 l 11.69,55.628 24.32,3.36 -11.9,-56.949" /><path
             id="path96"
             style="fill:#992094;fill-opacity:1;fill-rule:nonzero;stroke:none"
             d="m 2396.15,233.121 c 0.21,1 0.4,1.848 0.42,2.52 0.06,1.679 -0.75,2.347 -3.1,2.347 -4.38,0 -14.95,-4.367 -21.47,-7.738 l -11.09,-52.75 -23.71,0 16.76,79.82 20.96,3.52 -0.49,-9.059 c 13,6.039 23.2,9.231 32.61,9.231 10.94,0 14.76,-6.223 14.4,-16.641 -0.11,-2.851 -0.36,-5.199 -1.18,-9.402 l -12.1,-57.469 -23.71,0 11.7,55.621" /><path
             id="path98"
             style="fill:#992094;fill-opacity:1;fill-rule:nonzero;stroke:none"
             d="m 2452.22,293.609 24.5,3.371 -5.42,-25.21 -24.34,-3.36 5.26,25.199 m -7.66,-36.129 24.49,3.36 -17.7,-83.34 -23.71,0 16.92,79.98" /><path
             id="path100"
             style="fill:#992094;fill-opacity:1;fill-rule:nonzero;stroke:none"
             d="m 2512.89,240.352 -8.65,-40.84 -0.42,-2.192 c -0.04,-1.172 0.61,-1.679 2.29,-1.679 4.05,0 8.64,1.679 12.9,3.359 l 4.13,-16.461 c -6.85,-3.687 -16.7,-6.719 -26.29,-6.719 -11.94,0 -18.13,5.7 -17.79,15.45 0.04,1.179 0.26,2.359 0.46,3.531 l 9.66,45.551 -12.1,0 4.02,18.988 12.11,0 4.05,19.652 24.5,3.367 -4.85,-23.019 19.52,0 -5.38,-18.988 -18.16,0" /><path
             id="path102"
             style="fill:#992094;fill-opacity:1;fill-rule:nonzero;stroke:none"
             d="m 2608.37,240.352 -8.65,-40.84 -0.42,-2.192 c -0.04,-1.172 0.61,-1.679 2.29,-1.679 4.04,0 8.64,1.679 12.9,3.359 l 4.13,-16.461 c -6.85,-3.687 -16.71,-6.719 -26.3,-6.719 -11.93,0 -18.12,5.7 -17.78,15.45 0.04,1.179 0.25,2.359 0.46,3.531 l 9.66,45.551 -12.1,0 4.02,18.988 12.11,0 4.04,19.652 24.51,3.367 -4.84,-23.019 19.5,0 -5.37,-18.988 -18.16,0" /><path
             id="path104"
             style="fill:#992094;fill-opacity:1;fill-rule:nonzero;stroke:none"
             d="m 2679.74,237.988 c 0.09,2.864 -2.36,4.703 -6.73,4.703 -8.58,0 -11.28,-4.871 -12.69,-11.589 l -1.2,-5.711 c 4.06,1.007 5.92,1.347 10.86,2.847 6.45,1.864 9.58,4.883 9.76,9.75 m -43.17,-7.886 c 4.03,18.808 12.85,30.91 38.75,30.91 15.47,0 27,-6.711 26.53,-20.5 -0.56,-15.961 -9.06,-23.364 -29.45,-29.403 -10.02,-3.027 -10.19,-3.027 -17.32,-4.879 l -1.2,-5.71 c -0.62,-3.032 -0.37,-5.719 3.99,-5.719 8.58,0 21.17,4.199 32.44,9.09 l 3.96,-16.821 c -10.15,-6.211 -25.96,-11.25 -40.42,-11.25 -16.98,0 -23.96,7.379 -23.47,21.328 0.1,3.024 0.57,6.391 1.36,9.922 l 4.83,23.032" /><path
             id="path106"
             style="fill:#992094;fill-opacity:1;fill-rule:nonzero;stroke:none"
             d="m 2703.8,181.191 5.15,17.481 c 6.14,-2.192 13.13,-4.203 22.04,-4.203 7.91,0 8.48,2.351 9.29,6.211 0.81,3.691 -1.47,5.718 -10.55,10.59 -16.83,9.082 -17.3,15.128 -14.68,27.39 3.81,17.649 9.19,22.352 31.88,22.352 7.74,0 17.6,-1.672 24.25,-3.864 l -4.48,-17.816 c -6,1.68 -14.87,3.027 -20.59,3.027 -7.06,0 -8.1,-0.839 -9.09,-5.211 -0.81,-3.867 0.01,-4.707 7.76,-8.91 18.48,-10.078 21.22,-13.609 18.41,-26.539 -4,-18.5 -9.65,-25.879 -34.2,-25.879 -7.56,0 -18.08,2.18 -25.19,5.371" /><path
             id="path108"
             style="fill:#992094;fill-opacity:1;fill-rule:nonzero;stroke:none"
             d="m 2814.12,240.352 -8.65,-40.84 -0.42,-2.192 c -0.04,-1.172 0.61,-1.679 2.29,-1.679 4.05,0 8.64,1.679 12.9,3.359 l 4.13,-16.461 c -6.85,-3.687 -16.7,-6.719 -26.29,-6.719 -11.94,0 -18.13,5.7 -17.79,15.45 0.04,1.179 0.26,2.359 0.46,3.531 l 9.66,45.551 -12.1,0 4.02,18.988 12.11,0 4.05,19.652 24.5,3.367 -4.85,-23.019 19.52,0 -5.37,-18.988 -18.17,0" /><path
             id="path110"
             style="fill:#992094;fill-opacity:1;fill-rule:nonzero;stroke:none"
             d="m 2859.19,293.609 24.5,3.371 -5.42,-25.21 -24.33,-3.36 5.25,25.199 m -7.66,-36.129 24.5,3.36 -17.71,-83.34 -23.71,0 16.92,79.98" /><path
             id="path112"
             style="fill:#992094;fill-opacity:1;fill-rule:nonzero;stroke:none"
             d="m 2937.6,233.121 c 0.2,1 0.4,1.848 0.42,2.52 0.06,1.679 -0.75,2.347 -3.11,2.347 -4.37,0 -14.95,-4.367 -21.46,-7.738 l -11.1,-52.75 -23.71,0 16.76,79.82 20.97,3.52 -0.49,-9.059 c 13,6.039 23.19,9.231 32.61,9.231 10.93,0 14.75,-6.223 14.39,-16.641 -0.11,-2.851 -0.35,-5.199 -1.17,-9.402 l -12.1,-57.469 -23.71,0 11.7,55.621" /><path
             id="path114"
             style="fill:#992094;fill-opacity:1;fill-rule:nonzero;stroke:none"
             d="m 2996.12,205.391 c -0.99,-4.379 0.12,-6.391 4.32,-6.391 5.21,0 13.74,3.359 18.72,6.391 l 7.45,35.289 c -2.83,0.332 -5.86,0.511 -9.23,0.511 -12.27,0 -14.83,-6.05 -16.63,-13.941 l -4.63,-21.859 m 19.02,-19.161 c -7.04,-4.031 -15.23,-7.05 -24.13,-7.05 -17.83,0 -21.82,10.922 -17.98,29.242 l 4.01,18.648 c 4.42,20.66 10.1,33.942 45.08,33.942 8.57,0 21.3,-1.5 31.61,-4.871 l -19.32,-90.75 c -3.82,-18.309 -11.89,-22.692 -33.75,-22.692 -9.75,0 -26.28,3.031 -36.26,6.391 l 4.78,16.629 c 12.51,-3.008 22.7,-4.699 32.45,-4.699 7.07,0 8.85,2.691 10.05,8.242 l 3.46,16.968" /><path
             id="path116"
             style="fill:#f6836b;fill-opacity:1;fill-rule:nonzero;stroke:none"
             d="m 3503.84,0 -1873.33,0 0,347.629 506.5,0 c 0.65,-0.008 22.81,-0.008 52.05,-0.008 58.49,0 145.36,0.008 145.36,0.008 l 81.33,0 c 1.73,-2.149 4.19,-3.578 7.07,-3.578 l 76.04,0 c 2.9,0 5.79,1.429 8.23,3.578 l 99.18,0 c 1.73,-2.149 4.19,-3.578 7.1,-3.578 l 78.65,0 c 2.91,0 5.8,1.429 8.23,3.578 l 66.28,0 c 1.71,-2.149 4.15,-3.578 7.06,-3.578 l 79.29,0 c 2.91,0 5.82,1.429 8.27,3.578 l 193.8,0 c 0,0 0.01,0 0.02,0 0.01,0 0.02,0 0.03,0 l 448.84,0 0,-347.629 m -534.66,165.719 -4.78,-16.629 c 9.98,-3.36 26.51,-6.391 36.26,-6.391 21.86,0 29.93,4.383 33.75,22.692 l 19.32,90.75 c -10.31,3.371 -23.04,4.871 -31.61,4.871 -34.98,0 -40.66,-13.282 -45.08,-33.942 l -4.01,-18.648 c -3.84,-18.32 0.15,-29.242 17.98,-29.242 8.9,0 17.09,3.019 24.13,7.05 l -3.46,-16.968 c -1.2,-5.551 -2.98,-8.242 -10.05,-8.242 -9.75,0 -19.94,1.691 -32.45,4.699 m -826.73,95.121 -24.51,-3.36 -16.91,-79.98 c -1.63,-8.07 -4.19,-9.418 -16.27,-18.5 l 11.02,-16.301 c 22.52,14.289 25.93,20.172 28.16,30.93 l 18.51,87.211 m 639.88,-1.5 -4.02,-18.988 12.1,0 -9.66,-45.551 c -0.2,-1.172 -0.42,-2.352 -0.46,-3.531 -0.34,-9.75 5.85,-15.45 17.79,-15.45 9.59,0 19.44,3.032 26.29,6.719 L 2820.24,199 c -4.26,-1.68 -8.85,-3.359 -12.9,-3.359 -1.68,0 -2.33,0.507 -2.29,1.679 l 0.42,2.192 8.65,40.84 18.17,0 5.37,18.988 -19.52,0 4.85,23.019 -24.5,-3.367 -4.05,-19.652 -12.11,0 m -73.38,-60.668 -5.15,-17.481 c 7.11,-3.191 17.63,-5.371 25.19,-5.371 24.55,0 30.2,7.379 34.2,25.879 2.81,12.93 0.07,16.461 -18.41,26.539 -7.75,4.203 -8.57,5.043 -7.76,8.91 0.99,4.372 2.03,5.211 9.09,5.211 5.72,0 14.59,-1.347 20.59,-3.027 l 4.48,17.816 c -6.65,2.192 -16.51,3.864 -24.25,3.864 -22.69,0 -28.07,-4.703 -31.88,-22.352 -2.62,-12.262 -2.15,-18.308 14.68,-27.39 9.08,-4.872 11.36,-6.899 10.55,-10.59 -0.81,-3.86 -1.38,-6.211 -9.29,-6.211 -8.91,0 -15.9,2.011 -22.04,4.203 m -33.63,62.34 c -25.9,0 -34.72,-12.102 -38.75,-30.91 l -4.83,-23.032 c -0.79,-3.531 -1.26,-6.898 -1.36,-9.922 -0.49,-13.949 6.49,-21.328 23.47,-21.328 14.46,0 30.27,5.039 40.42,11.25 l -3.96,16.821 c -11.27,-4.891 -23.86,-9.09 -32.44,-9.09 -4.36,0 -4.61,2.687 -3.99,5.719 l 1.2,5.71 c 7.13,1.852 7.3,1.852 17.32,4.879 20.39,6.039 28.89,13.442 29.45,29.403 0.47,13.789 -11.06,20.5 -26.53,20.5 m -98.74,-1.672 -4.02,-18.988 12.1,0 -9.66,-45.551 c -0.21,-1.172 -0.42,-2.352 -0.46,-3.531 -0.34,-9.75 5.85,-15.45 17.78,-15.45 9.59,0 19.45,3.032 26.3,6.719 L 2614.49,199 c -4.26,-1.68 -8.86,-3.359 -12.9,-3.359 -1.68,0 -2.33,0.507 -2.29,1.679 l 0.42,2.192 8.65,40.84 18.16,0 5.37,18.988 -19.5,0 4.84,23.019 -24.51,-3.367 -4.04,-19.652 -12.11,0 m -95.48,0 -4.02,-18.988 12.1,0 -9.66,-45.551 c -0.2,-1.172 -0.42,-2.352 -0.46,-3.531 -0.34,-9.75 5.85,-15.45 17.79,-15.45 9.59,0 19.44,3.032 26.29,6.719 L 2519.01,199 c -4.26,-1.68 -8.85,-3.359 -12.9,-3.359 -1.68,0 -2.33,0.507 -2.29,1.679 l 0.42,2.192 8.65,40.84 18.16,0 5.38,18.988 -19.52,0 4.85,23.019 -24.5,-3.367 -4.05,-19.652 -12.11,0 m -194.1,1.5 -24.32,-3.36 -11.69,-55.628 c -0.63,-3.352 -1.06,-6.032 -1.18,-9.403 -0.36,-10.25 3.62,-16.629 14.38,-16.629 9.42,0 19.63,3.18 32.61,9.239 l -0.09,-7.559 20.17,0 17.54,83.34 -24.5,-3.36 -10.68,-50.921 c -6.15,-3.02 -17.08,-7.719 -21.46,-7.719 -2.35,0 -3.16,0.84 -3.1,2.519 l 0.42,2.532 11.9,56.949 m -138,-62.168 -5.14,-17.481 c 7.11,-3.191 17.63,-5.371 25.19,-5.371 24.55,0 30.2,7.379 34.2,25.879 2.8,12.93 0.07,16.461 -18.41,26.539 -7.75,4.203 -8.57,5.043 -7.76,8.91 1,4.372 2.03,5.211 9.09,5.211 5.71,0 14.59,-1.347 20.59,-3.027 l 4.48,17.816 c -6.65,2.192 -16.51,3.864 -24.25,3.864 -22.69,0 -28.07,-4.703 -31.88,-22.352 -2.62,-12.262 -2.15,-18.308 14.68,-27.39 9.08,-4.872 11.35,-6.899 10.55,-10.59 -0.8,-3.86 -1.38,-6.211 -9.3,-6.211 -8.9,0 -15.89,2.011 -22.04,4.203 m 785.91,39.316 c 2.36,0 3.17,-0.668 3.11,-2.347 -0.02,-0.672 -0.22,-1.52 -0.42,-2.52 l -11.7,-55.621 23.71,0 12.1,57.469 c 0.82,4.203 1.06,6.551 1.17,9.402 0.36,10.418 -3.46,16.641 -14.39,16.641 -9.42,0 -19.61,-3.192 -32.61,-9.231 l 0.49,9.059 -20.97,-3.52 -16.76,-79.82 23.71,0 11.1,52.75 c 6.51,3.371 17.09,7.738 21.46,7.738 m -58.88,22.852 -24.5,-3.36 -16.92,-79.98 23.71,0 17.71,83.34 m -406.98,0 -24.49,-3.36 -16.92,-79.98 23.71,0 17.7,83.34 m -75.58,-22.852 c 2.35,0 3.16,-0.668 3.1,-2.347 -0.02,-0.672 -0.21,-1.52 -0.42,-2.52 l -11.7,-55.621 23.71,0 12.1,57.469 c 0.82,4.203 1.07,6.551 1.18,9.402 0.36,10.418 -3.46,16.641 -14.4,16.641 -9.41,0 -19.61,-3.192 -32.61,-9.231 l 0.49,9.059 -20.96,-3.52 -16.76,-79.82 23.71,0 11.09,52.75 c 6.52,3.371 17.09,7.738 21.47,7.738 m 490.22,58.992 -24.5,-3.371 -5.25,-25.199 24.33,3.36 5.42,25.21 m -406.97,0 -24.5,-3.371 -5.26,-25.199 24.34,3.36 5.42,25.21 m -326.63,0 -24.49,-3.371 -5.26,-25.199 24.34,3.36 5.41,25.21" /><path
             id="path118"
             style="fill:#80312e;fill-opacity:1;fill-rule:nonzero;stroke:none"
             d="m 2189.06,347.621 c -29.24,0 -51.4,0 -52.05,0.008 l 197.41,0 c 0,0 -86.87,-0.008 -145.36,-0.008" /><path
             id="path120"
             style="fill:#80312e;fill-opacity:1;fill-rule:nonzero;stroke:none"
             d="m 2692.02,344.051 -78.65,0 c -2.91,0 -5.37,1.429 -7.1,3.578 l 93.98,0 c -2.43,-2.149 -5.32,-3.578 -8.23,-3.578 m -193.16,0 -76.04,0 c -2.88,0 -5.34,1.429 -7.07,3.578 l 91.34,0 c -2.44,-2.149 -5.33,-3.578 -8.23,-3.578" /><path
             id="path122"
             style="fill:#80312e;fill-opacity:1;fill-rule:nonzero;stroke:none"
             d="m 2852.88,344.051 -79.29,0 c -2.91,0 -5.35,1.429 -7.06,3.578 l 94.62,0 c -2.45,-2.149 -5.36,-3.578 -8.27,-3.578" /><path
             id="path124"
             style="fill:#80312e;fill-opacity:1;fill-rule:nonzero;stroke:none"
             d="m 3054.97,347.629 c -0.01,0 -0.02,0 -0.02,0 l 0.05,0 c -0.01,0 -0.02,0 -0.03,0" /><path
             id="path126"
             style="fill:#c41c5c;fill-opacity:1;fill-rule:nonzero;stroke:none"
             d="M 2095.78,142.699 2084.76,159 c 12.08,9.082 14.64,10.43 16.27,18.5 l 16.91,79.98 24.51,3.36 -18.51,-87.211 c -2.23,-10.758 -5.64,-16.641 -28.16,-30.93 m 24.56,125.711 5.26,25.199 24.49,3.371 -5.41,-25.21 -24.34,-3.36" /><path
             id="path128"
             style="fill:#c41c5c;fill-opacity:1;fill-rule:nonzero;stroke:none"
             d="m 2169.05,175.82 c -7.56,0 -18.08,2.18 -25.19,5.371 l 5.14,17.481 c 6.15,-2.192 13.14,-4.203 22.04,-4.203 7.92,0 8.5,2.351 9.3,6.211 0.8,3.691 -1.47,5.718 -10.55,10.59 -16.83,9.082 -17.3,15.128 -14.68,27.39 3.81,17.649 9.19,22.352 31.88,22.352 7.74,0 17.6,-1.672 24.25,-3.864 l -4.48,-17.816 c -6,1.68 -14.88,3.027 -20.59,3.027 -7.06,0 -8.09,-0.839 -9.09,-5.211 -0.81,-3.867 0.01,-4.707 7.76,-8.91 18.48,-10.078 21.21,-13.609 18.41,-26.539 -4,-18.5 -9.65,-25.879 -34.2,-25.879" /><path
             id="path130"
             style="fill:#c41c5c;fill-opacity:1;fill-rule:nonzero;stroke:none"
             d="m 2264.19,175.82 c -10.76,0 -14.74,6.379 -14.38,16.629 0.12,3.371 0.55,6.051 1.18,9.403 l 11.69,55.628 24.32,3.36 -11.9,-56.949 -0.42,-2.532 c -0.06,-1.679 0.75,-2.519 3.1,-2.519 4.38,0 15.31,4.699 21.46,7.719 l 10.68,50.921 24.5,3.36 -17.54,-83.34 -20.17,0 0.09,7.559 c -12.98,-6.059 -23.19,-9.239 -32.61,-9.239" /><path
             id="path132"
             style="fill:#c41c5c;fill-opacity:1;fill-rule:nonzero;stroke:none"
             d="m 2408.16,177.5 -23.71,0 11.7,55.621 c 0.21,1 0.4,1.848 0.42,2.52 0.06,1.679 -0.75,2.347 -3.1,2.347 -4.38,0 -14.95,-4.367 -21.47,-7.738 l -11.09,-52.75 -23.71,0 16.76,79.82 20.96,3.52 -0.49,-9.059 c 13,6.039 23.2,9.231 32.61,9.231 10.94,0 14.76,-6.223 14.4,-16.641 -0.11,-2.851 -0.36,-5.199 -1.18,-9.402 l -12.1,-57.469" /><path
             id="path134"
             style="fill:#c41c5c;fill-opacity:1;fill-rule:nonzero;stroke:none"
             d="m 2451.35,177.5 -23.71,0 16.92,79.98 24.49,3.36 -17.7,-83.34 m -4.39,90.91 5.26,25.199 24.5,3.371 -5.42,-25.21 -24.34,-3.36" /><path
             id="path136"
             style="fill:#c41c5c;fill-opacity:1;fill-rule:nonzero;stroke:none"
             d="m 2496.85,175.82 c -11.94,0 -18.13,5.7 -17.79,15.45 0.04,1.179 0.26,2.359 0.46,3.531 l 9.66,45.551 -12.1,0 4.02,18.988 12.11,0 4.05,19.652 24.5,3.367 -4.85,-23.019 19.52,0 -5.38,-18.988 -18.16,0 -8.65,-40.84 -0.42,-2.192 c -0.04,-1.172 0.61,-1.679 2.29,-1.679 4.05,0 8.64,1.679 12.9,3.359 l 4.13,-16.461 c -6.85,-3.687 -16.7,-6.719 -26.29,-6.719" /><path
             id="path138"
             style="fill:#f6836b;fill-opacity:1;fill-rule:nonzero;stroke:none"
             d="m 2659.12,225.391 1.2,5.711 c 1.41,6.718 4.11,11.589 12.69,11.589 4.37,0 6.82,-1.839 6.73,-4.703 -0.18,-4.867 -3.31,-7.886 -9.76,-9.75 -4.94,-1.5 -6.8,-1.84 -10.86,-2.847" /><path
             id="path140"
             style="fill:#c41c5c;fill-opacity:1;fill-rule:nonzero;stroke:none"
             d="m 2592.32,175.82 c -11.93,0 -18.12,5.7 -17.78,15.45 0.04,1.179 0.25,2.359 0.46,3.531 l 9.66,45.551 -12.1,0 4.02,18.988 12.11,0 4.04,19.652 24.51,3.367 -4.84,-23.019 19.5,0 -5.37,-18.988 -18.16,0 -8.65,-40.84 -0.42,-2.192 c -0.04,-1.172 0.61,-1.679 2.29,-1.679 4.04,0 8.64,1.679 12.9,3.359 l 4.13,-16.461 c -6.85,-3.687 -16.71,-6.719 -26.3,-6.719" /><path
             id="path142"
             style="fill:#c41c5c;fill-opacity:1;fill-rule:nonzero;stroke:none"
             d="m 2653.85,175.82 c -16.98,0 -23.96,7.379 -23.47,21.328 0.1,3.024 0.57,6.391 1.36,9.922 l 4.83,23.032 c 4.03,18.808 12.85,30.91 38.75,30.91 15.47,0 27,-6.711 26.53,-20.5 -0.56,-15.961 -9.06,-23.364 -29.45,-29.403 -10.02,-3.027 -10.19,-3.027 -17.32,-4.879 l -1.2,-5.71 c -0.62,-3.032 -0.37,-5.719 3.99,-5.719 8.58,0 21.17,4.199 32.44,9.09 l 3.96,-16.821 c -10.15,-6.211 -25.96,-11.25 -40.42,-11.25 m 19.16,66.871 c -8.58,0 -11.28,-4.871 -12.69,-11.589 l -1.2,-5.711 c 4.06,1.007 5.92,1.347 10.86,2.847 6.45,1.864 9.58,4.883 9.76,9.75 0.09,2.864 -2.36,4.703 -6.73,4.703" /><path
             id="path144"
             style="fill:#c41c5c;fill-opacity:1;fill-rule:nonzero;stroke:none"
             d="m 2728.99,175.82 c -7.56,0 -18.08,2.18 -25.19,5.371 l 5.15,17.481 c 6.14,-2.192 13.13,-4.203 22.04,-4.203 7.91,0 8.48,2.351 9.29,6.211 0.81,3.691 -1.47,5.718 -10.55,10.59 -16.83,9.082 -17.3,15.128 -14.68,27.39 3.81,17.649 9.19,22.352 31.88,22.352 7.74,0 17.6,-1.672 24.25,-3.864 l -4.48,-17.816 c -6,1.68 -14.87,3.027 -20.59,3.027 -7.06,0 -8.1,-0.839 -9.09,-5.211 -0.81,-3.867 0.01,-4.707 7.76,-8.91 18.48,-10.078 21.22,-13.609 18.41,-26.539 -4,-18.5 -9.65,-25.879 -34.2,-25.879" /><path
             id="path146"
             style="fill:#c41c5c;fill-opacity:1;fill-rule:nonzero;stroke:none"
             d="m 2798.08,175.82 c -11.94,0 -18.13,5.7 -17.79,15.45 0.04,1.179 0.26,2.359 0.46,3.531 l 9.66,45.551 -12.1,0 4.02,18.988 12.11,0 4.05,19.652 24.5,3.367 -4.85,-23.019 19.52,0 -5.37,-18.988 -18.17,0 -8.65,-40.84 -0.42,-2.192 c -0.04,-1.172 0.61,-1.679 2.29,-1.679 4.05,0 8.64,1.679 12.9,3.359 l 4.13,-16.461 c -6.85,-3.687 -16.7,-6.719 -26.29,-6.719" /><path
             id="path148"
             style="fill:#c41c5c;fill-opacity:1;fill-rule:nonzero;stroke:none"
             d="m 2858.32,177.5 -23.71,0 16.92,79.98 24.5,3.36 -17.71,-83.34 m -4.38,90.91 5.25,25.199 24.5,3.371 -5.42,-25.21 -24.33,-3.36" /><path
             id="path150"
             style="fill:#c41c5c;fill-opacity:1;fill-rule:nonzero;stroke:none"
             d="m 2949.61,177.5 -23.71,0 11.7,55.621 c 0.2,1 0.4,1.848 0.42,2.52 0.06,1.679 -0.75,2.347 -3.11,2.347 -4.37,0 -14.95,-4.367 -21.46,-7.738 l -11.1,-52.75 -23.71,0 16.76,79.82 20.97,3.52 -0.49,-9.059 c 13,6.039 23.19,9.231 32.61,9.231 10.93,0 14.75,-6.223 14.39,-16.641 -0.11,-2.851 -0.35,-5.199 -1.17,-9.402 l -12.1,-57.469" /><path
             id="path152"
             style="fill:#f6836b;fill-opacity:1;fill-rule:nonzero;stroke:none"
             d="m 3000.44,199 c -4.2,0 -5.31,2.012 -4.32,6.391 l 4.63,21.859 c 1.8,7.891 4.36,13.941 16.63,13.941 3.37,0 6.4,-0.179 9.23,-0.511 l -7.45,-35.289 C 3014.18,202.359 3005.65,199 3000.44,199" /><path
             id="path154"
             style="fill:#c41c5c;fill-opacity:1;fill-rule:nonzero;stroke:none"
             d="m 3000.66,142.699 c -9.75,0 -26.28,3.031 -36.26,6.391 l 4.78,16.629 c 12.51,-3.008 22.7,-4.699 32.45,-4.699 7.07,0 8.85,2.691 10.05,8.242 l 3.46,16.968 c -7.04,-4.031 -15.23,-7.05 -24.13,-7.05 -17.83,0 -21.82,10.922 -17.98,29.242 l 4.01,18.648 c 4.42,20.66 10.1,33.942 45.08,33.942 8.57,0 21.3,-1.5 31.61,-4.871 l -19.32,-90.75 c -3.82,-18.309 -11.89,-22.692 -33.75,-22.692 m 16.72,98.492 c -12.27,0 -14.83,-6.05 -16.63,-13.941 l -4.63,-21.859 c -0.99,-4.379 0.12,-6.391 4.32,-6.391 5.21,0 13.74,3.359 18.72,6.391 l 7.45,35.289 c -2.83,0.332 -5.86,0.511 -9.23,0.511" /><path
             id="path156"
             style="fill:#f6836b;fill-opacity:1;fill-rule:nonzero;stroke:none"
             d="m 3503.84,780.602 -554.99,0 c -7.26,9.769 -21.3,12.839 -37.31,12.839 -16.73,0 -32.14,-3.07 -43.54,-12.839 l -1237.49,0 0,347.638 1873.33,0 0,-347.638" /><path
             id="path158"
             style="fill:#80312e;fill-opacity:1;fill-rule:nonzero;stroke:none"
             d="m 2948.85,780.602 -80.85,0 c 11.4,9.769 26.81,12.839 43.54,12.839 16.01,0 30.05,-3.07 37.31,-12.839" /></g></g></g></g></svg>