<?xml version="1.0" encoding="utf-8"?>
<!-- Generator: Adobe Illustrator 18.1.1, SVG Export Plug-In . SVG Version: 6.00 Build 0)  -->
<svg version="1.1" id="Layer_1" xmlns="http://www.w3.org/2000/svg" xmlns:xlink="http://www.w3.org/1999/xlink" x="0px" y="0px"
	 viewBox="0 90 612 612" enable-background="new 0 90 612 612" xml:space="preserve">
<rect id="background" y="90" fill="#B0151C" width="612" height="612"/>
<path id="j" d="M328.1,637.7l28.8-17.4c5.6,9.9,10.6,18.2,22.8,18.2c11.6,0,19-4.5,19-22.2V495.8H434v120.8
	c0,36.7-21.5,53.3-52.8,53.3C352.8,670,336.4,655.3,328.1,637.7"/>
<path id="s" d="M453.2,633.9l28.8-16.7c7.6,12.4,17.4,21.5,34.9,21.5c14.7,0,24-7.3,24-17.4c0-12.1-9.6-16.4-25.8-23.5l-8.8-3.8
	c-25.5-10.9-42.5-24.5-42.5-53.3c0-26.5,20.2-46.8,51.8-46.8c22.5,0,38.7,7.8,50.3,28.3l-27.6,17.7c-6.1-10.9-12.6-15.2-22.8-15.2
	c-10.4,0-16.9,6.6-16.9,15.2c0,10.6,6.6,14.9,21.7,21.5l8.8,3.8c30.1,12.9,47,26,47,55.6c0,31.9-25,49.3-58.7,49.3
	C484.8,670,463.6,654.3,453.2,633.9"/>
<g id="layer1" transform="translate(-31.24772,-242.06043)" groupmode="layer" label="Layer 1">
	<g id="g11256" transform="translate(-618.0532,-491.33756)">
		<g id="g11136" transform="translate(766.97337,-208.94283)">
			<path id="path11098" fill="none" stroke="#1A1A1A" stroke-width="3" stroke-linecap="round" d="M-114.2,1031.9h341.4"/>
		</g>
		<g id="g11188" transform="matrix(-1,0,0,-1,1040.5257,2181.0134)">
			<path id="path11204" fill="none" stroke="#1A1A1A" stroke-width="3" stroke-linecap="round" d="M389.7,1356.9v-341.4"/>
		</g>
		<g id="g11222" transform="matrix(1,0,0,-1,767.00927,2182.0566)">
			<path id="path11224" fill="none" stroke="#1A1A1A" stroke-width="3" stroke-linecap="round" d="M-114.2,1356.5h341.4"/>
			<path id="path11226" fill="none" stroke="#1A1A1A" stroke-width="3" stroke-linecap="round" d="M-114.2,1356.5l329.8-88.4"/>
			<path id="path11228" fill="none" stroke="#1A1A1A" stroke-width="3" stroke-linecap="round" d="M-114.2,1356.5l295.7-170.7"/>
			<path id="path11230" fill="none" stroke="#1A1A1A" stroke-width="3" stroke-linecap="round" d="M-114.2,1356.5l241.4-241.4"/>
			<path id="path11232" fill="none" stroke="#1A1A1A" stroke-width="3" stroke-linecap="round" d="M-114.2,1356.5l170.7-295.7"/>
			<path id="path11234" fill="none" stroke="#1A1A1A" stroke-width="3" stroke-linecap="round" d="M-114.2,1356.5l88.4-329.8"/>
			<path id="path11236" nodetypes="ccccccc" fill="none" stroke="#1A1A1A" stroke-width="3" stroke-linecap="round" d="
				M227.2,1356.5c-24.6-32.4-23.1-61.1-11.6-88.4c-51-43.3-30.5-58-34.1-82.3c-56.4-15.9-46.1-45.1-54.3-70.7
				c-59.5,3.5-60.9-27.9-70.7-54.3c-32.2,11-68.9-9.4-82.3-34.1c-38.1,25.4-69,21.7-92.4-11.6"/>
			<path id="path11238" fill="none" stroke="#1A1A1A" stroke-width="3" stroke-linecap="round" d="M-118.3,1356.5v-341.4"/>
			<path id="path11240" nodetypes="ccccccc" fill="none" stroke="#1A1A1A" stroke-width="3" stroke-linecap="round" d="
				M187.1,1356.8c-21.8-28.7-20.5-54-10.3-78.2c-45.1-38.3-27-51.3-30.2-72.8c-49.9-14.1-40.8-39.9-48-62.5
				c-52.6,3.1-53.9-24.7-62.5-48c-28.5,9.7-61-8.3-72.8-30.2c-33.7,22.4-61,19.2-81.8-10.3"/>
			<path id="path11242" nodetypes="ccccccc" fill="none" stroke="#1A1A1A" stroke-width="3" stroke-linecap="round" d="
				M145.2,1357c-18.8-24.8-17.7-46.7-8.9-67.5c-38.9-33.1-23.3-44.3-26.1-62.9c-43.1-12.2-35.2-34.5-41.4-54
				c-45.4,2.6-46.5-21.3-54-41.4c-24.6,8.4-52.7-7.1-62.9-26.1c-29.1,19.4-52.7,16.6-70.6-8.9"/>
			<path id="path11244" nodetypes="ccccccc" fill="none" stroke="#1A1A1A" stroke-width="3" stroke-linecap="round" d="
				M105.5,1357.2c-16-21.1-15-39.7-7.6-57.4c-33.1-28.1-19.8-37.7-22.2-53.5c-36.6-10.3-30-29.3-35.3-45.9
				c-38.7,2.3-39.6-18.1-45.9-35.3c-20.9,7.2-44.8-6.1-53.5-22.2c-24.8,16.5-44.8,14.1-60.1-7.6"/>
			<path id="path11246" nodetypes="ccccccc" fill="none" stroke="#1A1A1A" stroke-width="3" stroke-linecap="round" d="
				M42.5,1357.5c-11.5-15.2-10.8-28.6-5.4-41.4c-23.8-20.3-14.3-27.1-16-38.5c-26.4-7.4-21.6-21.1-25.4-33.1
				c-27.8,1.6-28.5-13.1-33.1-25.4c-15.1,5.2-32.3-4.4-38.5-16c-17.8,11.9-32.3,10.1-43.3-5.4"/>
			<path id="path11248" nodetypes="ccccccc" fill="none" stroke="#1A1A1A" stroke-width="3" stroke-linecap="round" d="
				M70,1357.5c-13.5-17.8-12.7-33.5-6.4-48.4c-27.9-23.7-16.7-31.8-18.7-45.1c-30.9-8.7-25.3-24.7-29.7-38.7
				c-32.6,1.9-33.4-15.3-38.7-29.7c-17.6,6-37.8-5.1-45.1-18.7c-20.9,13.9-37.8,11.9-50.6-6.4"/>
			<path id="path11250" nodetypes="ccccccc" fill="none" stroke="#1A1A1A" stroke-width="3" stroke-linecap="round" d="
				M5.7,1357.8c-8.9-11.8-8.4-22.2-4.2-32c-18.5-15.7-11.1-21-12.4-29.9c-20.4-5.8-16.7-16.4-19.7-25.6
				c-21.6,1.3-22.1-10.1-25.6-19.7c-11.7,4-25-3.4-29.9-12.4c-13.8,9.2-25,7.9-33.5-4.2"/>
			<path id="path11252" nodetypes="ccccccc" fill="none" stroke="#1A1A1A" stroke-width="3" stroke-linecap="round" d="
				M-21.7,1358c-7-9.2-6.6-17.3-3.3-25.1c-14.5-12.3-8.7-16.5-9.7-23.4c-16-4.5-13.1-12.8-15.4-20.1c-16.9,1-17.3-7.9-20.1-15.4
				c-9.1,3.1-19.6-2.7-23.4-9.7c-10.8,7.2-19.6,6.2-26.2-3.3"/>
			<path id="path11254" nodetypes="ccccccc" fill="none" stroke="#1A1A1A" stroke-width="3" stroke-linecap="round" d="
				M-57.8,1358.2c-4.4-5.8-4.2-11-2.1-15.9c-9.2-7.8-5.5-10.4-6.1-14.8c-10.1-2.9-8.3-8.1-9.8-12.7c-10.7,0.6-10.9-5-12.7-9.8
				c-5.8,2-12.4-1.7-14.8-6.1c-6.9,4.6-12.4,3.9-16.6-2.1"/>
		</g>
	</g>
</g>
<text transform="matrix(1 0 0 1 17.0002 663.254)" font-family="'NeutraText-Bold'" font-size="104.0646">Spider.</text>
<line fill="none" stroke="#1A1A1A" stroke-width="3" x1="244.9" y1="334" x2="244.9" y2="579.3"/>
<path fill="#757575" d="M247.7,542.4c2.4,3.1,4.2,6.8,5.5,10.6c1,2.8,1,6.1,1.1,9.1c0.2,3.7,0,7.4,0,11.2c0.4,0,0.7,0,1.1,0
	c0.4-3.8,0.8-7.6,1-11.4c0.2-2.8,1.4-5.1,3.5-6.4c4.4-2.6,8.9-5.1,13.6-7.2c3.6-1.6,6.9-0.2,9.8,2.3c3.2,2.7,6.4,5.4,10.9,4.8
	c-1.3,3.9-2.2,4.6-5.5,3.1c-3.6-1.7-7-3.9-10.5-5.8c-0.7-0.4-1.7-0.7-2.2-0.5c-4.6,2.3-9.1,4.7-13.5,7.3c-1.8,1.1-2.3,2.7-1.8,5.3
	c0.7,3.3,0.5,6.8,0.5,10.2c0,2.5-0.2,5-0.4,7.5c0.3,0.1,0.6,0.3,0.9,0.4c0.6-0.5,1.2-0.8,1.7-1.4c2.6-3.6,4.9-7.6,7.8-10.9
	c2.2-2.5,5.1-4.6,8.1-6.2c1.2-0.7,3.6-0.2,5,0.7c5,3.1,9.9,6.7,14.8,9.9c4.5,2.9,9,5.7,13.5,8.6c2.9,1.9,2.5,5.3,3.2,8.3
	c1.3,5.7,2.3,11.5,3.8,17.1c0.8,3.1,2.5,5.9,3.8,9c-2.6,0.6-4.2-0.7-4.9-2.6c-1.9-5-3.7-10.1-5.3-15.2c-1-3.1-1.3-6.4-2.3-9.4
	c-0.5-1.5-1.5-3.1-2.8-4c-7.8-5.2-15.7-10.1-23.6-15.2c-1.8-1.2-3.1-1-4.5,0.6c-3,3.5-6.3,6.8-9.2,10.4c-0.9,1.1-1.2,2.8-1.8,4.3
	c5.5-0.3,10.7-0.4,15.8-0.9c3.5-0.3,5.6,1.2,7.2,4.3c3.3,6.3,7.2,12.4,10.4,18.8c2.9,5.8,5.7,11.6,5,18.6c-0.4,4.7,0.2,9.4-0.2,14.1
	c-0.2,3.5-1.1,6.9-1.9,10.3c-0.2,0.7-1.1,1.2-1.7,1.8c-0.3-0.1-0.5-0.3-0.8-0.4c0.3-4.2,0.7-8.3,1-12.5c0.3-6.9,1.4-14.1-0.9-20.7
	c-1.5-4.3-4.2-8-6.5-12c-2.7-4.8-5.5-9.4-8.1-14.2c-1-1.8-2-2-3.8-1.7c-4.9,0.8-9.8,1.3-14.7,2c-1.3,0.2-2.5,0.7-3.8,1.1
	c0.6,1.3,1.1,2.8,2,4c1.3,1.7,2.4,3.2,2.3,5.6c-0.1,2.2-1.4,3.5-2.9,3.5c-1.7,0.1-2.4-1.7-2.5-3.6c-0.1-1.7-0.4-3.3-0.7-5.1
	c-3.3,1-6.1,2-8.9,2.5c-3.1,0.6-1.8,3.3-2.5,5c-0.7,1.7-0.6,3.7-1.2,5.5c-1.1,3.8-3.7,4.8-7.1,3c0-0.2,0-0.4,0.1-0.5
	c3.2-2.1,3.7-5.3,3.4-9c-0.2-2.1,0-4.2,0-6.3c-4.9-0.4-10.2-1-15.5-1.3c-3.9-0.2-6.1,1.9-5.6,5.9c0.7,5.7,1.6,11.5,3.1,17
	c2,7.4,4.1,14.8,7.1,21.8c2.5,5.7,6.3,10.7,9.4,16.2c0.8,1.4,1.8,4,1.2,4.6c-1.3,1.4-3.2,0.2-4.2-1.2c-2.8-3.6-5.7-7.2-7.9-11.3
	c-6.6-12-11-25-13.8-38.5c-0.9-4.3-0.9-9-0.6-13.5c0.1-1.6,1.9-3.3,3.3-4.4c3-2.5,3.1-2.5,0.1-5c-0.5-0.4-0.9-0.9-1.3-1.3
	c-1.9-1.6-3.9-1.5-5.1,0.6c-5.1,9-10.8,17.7-13.2,28.1c-1.2,5.4-1.1,10.7-0.1,16c1,5.8,2.6,11.6,3.9,17.4c0.1,0.5,0,1.1-0.1,2.2
	c-1.4-1.2-2.8-2-3.6-3.2c-2.8-3.8-4.7-8-5.2-12.8c-0.5-5.5-0.7-11-1.1-16.4c-0.4-4.7,1.2-9,2.8-13.2c2.7-7.1,5.9-14.1,9.2-20.9
	c1-2.1,2.9-4,4.7-5.4c2.4-1.8,4.9-0.5,7.3,0.8c2,1.1,4.1,1.9,6.4,2.9c0.2-7-4.9-12.9-10.6-12.8c-7.3,0.1-14.5,1.2-21.3,4
	c-2,0.8-3.9,2.1-5.4,3.7c-5,5-9.8,10.2-14.6,15.2c-0.9,0.9-1.8,1.8-2.9,2.3c-0.7,0.3-1.9,0.2-2.6-0.3c-0.3-0.2-0.3-1.8,0.1-2.4
	c4-5.7,8.5-11.1,12.2-17c3.5-5.7,8.7-7.3,14.5-8.4c5.3-1,10.7-2.3,16-3.2c5.1-0.9,9.9,0,13.8,3.9c0.3,0.2,0.5,0.4,0.8,0.6
	c0.1,0,0.2,0,0.2,0c-0.2-1.4-0.3-2.9-0.5-4.3c-0.5-4.8-4.1-6.1-7.6-7.5c-6-2.4-11.9-5.3-18.1-7.1c-3.7-1.1-7.8-0.8-11.7-0.5
	c-3.9,0.3-7.8,1.4-11.8,1.9c-4.8,0.5-9.5-3.7-9.3-8.3c1,0.1,2.3-0.2,2.9,0.3c4.2,3.9,8.8,2.5,13.4,1.6c3.9-0.8,7.8-2.3,11.7-2.2
	c3.6,0.1,7.2,1.7,10.6,3.2c5.4,2.3,10.5,5,15.8,7.4c5.6,2.6,8.9,6.8,9.5,13.4c0.3,3.4,1.1,6.8,1.7,9.6c3.2,0,6.1,0,9.1,0
	c1.2,0,2.8,0.6,3-1.6c0.4-6.3,1-12.6,0.9-18.9c0-2.5-1-5.4-2.3-7.6c-3.9-6.6-8.2-13-12.1-19.6c-1.2-2-1.3-4.7-1.9-7.1
	c0.3-0.1,0.6-0.3,0.9-0.4c2.1,3,4.2,6,6.9,9.7"/>
</svg>
